<mxfile host="app.diagrams.net" modified="2024-07-09T08:07:53.957Z" agent="Mozilla/5.0 (Windows NT 10.0; Win64; x64; rv:127.0) Gecko/20100101 Firefox/127.0" etag="IQy_e1zEoTTcVNr3Cham" version="24.6.4" type="device">
  <diagram name="Seite-1" id="4eF1Dyq21S53ineMH3n4">
    <mxGraphModel dx="1434" dy="746" grid="1" gridSize="10" guides="1" tooltips="1" connect="1" arrows="1" fold="1" page="1" pageScale="1" pageWidth="827" pageHeight="1169" math="0" shadow="0">
      <root>
        <mxCell id="0" />
        <mxCell id="1" parent="0" />
        <mxCell id="MYi6sRTybnQKfaTiDiRy-1" value="&lt;div align=&quot;left&quot;&gt;Html: Login&lt;/div&gt;&lt;div align=&quot;left&quot;&gt;Spielfeld&lt;/div&gt;&lt;div align=&quot;left&quot;&gt;Kartensammlung&lt;/div&gt;&lt;div align=&quot;left&quot;&gt;Css: Farblich an Western/Casino orientiert, Karten-div/img styling&lt;br&gt;&lt;/div&gt;" style="rounded=0;whiteSpace=wrap;html=1;fillColor=#dae8fc;strokeColor=#6c8ebf;" parent="1" vertex="1">
          <mxGeometry x="40" y="40" width="200" height="250" as="geometry" />
        </mxCell>
        <mxCell id="MYi6sRTybnQKfaTiDiRy-4" value="&lt;div&gt;PHP: Spielmechanik Blackjack(abgeändert)&lt;/div&gt;&lt;div&gt;&lt;span style=&quot;white-space: pre;&quot;&gt;&#x9;&lt;/span&gt;&amp;nbsp;&amp;nbsp; PVE Semi Co-op (Sieger mit meisten Schaden, alle verlieren wenn Boss nicht besiegt)&lt;br&gt;&lt;/div&gt;&lt;div&gt;SQL-Abfragen: User mit Login, Aufzeichnen von gespielten Sessions, Bosse en detail&lt;br&gt;&lt;/div&gt;" style="text;html=1;align=left;verticalAlign=middle;whiteSpace=wrap;rounded=0;fillColor=#dae8fc;strokeColor=#6c8ebf;" parent="1" vertex="1">
          <mxGeometry x="250" y="40" width="270" height="250" as="geometry" />
        </mxCell>
        <mxCell id="MYi6sRTybnQKfaTiDiRy-5" value="&lt;div&gt;Datenbank:&lt;/div&gt;&lt;div&gt;&lt;br&gt;&lt;/div&gt;&lt;div&gt;&lt;br&gt;&lt;/div&gt;&lt;div&gt;&lt;br&gt;&lt;/div&gt;&lt;div&gt;&lt;br&gt;&lt;/div&gt;" style="text;html=1;align=left;verticalAlign=middle;whiteSpace=wrap;rounded=0;" parent="1" vertex="1">
          <mxGeometry x="360" y="320" width="280" height="20" as="geometry" />
        </mxCell>
        <mxCell id="MYi6sRTybnQKfaTiDiRy-29" value="User" style="swimlane;childLayout=stackLayout;horizontal=1;startSize=50;horizontalStack=0;rounded=1;fontSize=14;fontStyle=0;strokeWidth=2;resizeParent=0;resizeLast=1;shadow=0;dashed=0;align=center;arcSize=4;whiteSpace=wrap;html=1;fillColor=#dae8fc;strokeColor=#6c8ebf;" parent="1" vertex="1">
          <mxGeometry x="30" y="340" width="300" height="180" as="geometry" />
        </mxCell>
        <mxCell id="MYi6sRTybnQKfaTiDiRy-30" value="+ID(PK)&lt;br&gt;+Username&lt;br&gt;&lt;div&gt;+Password&lt;/div&gt;&lt;div&gt;+&lt;br&gt;&lt;/div&gt;" style="align=left;strokeColor=none;fillColor=none;spacingLeft=4;fontSize=12;verticalAlign=top;resizable=0;rotatable=0;part=1;html=1;" parent="MYi6sRTybnQKfaTiDiRy-29" vertex="1">
          <mxGeometry y="50" width="300" height="130" as="geometry" />
        </mxCell>
        <mxCell id="MYi6sRTybnQKfaTiDiRy-31" value="&lt;div&gt;Session&lt;/div&gt;" style="swimlane;childLayout=stackLayout;horizontal=1;startSize=50;horizontalStack=0;rounded=1;fontSize=14;fontStyle=0;strokeWidth=2;resizeParent=0;resizeLast=1;shadow=0;dashed=0;align=center;arcSize=4;whiteSpace=wrap;html=1;fillColor=#dae8fc;strokeColor=#6c8ebf;" parent="1" vertex="1">
          <mxGeometry x="440" y="330" width="340" height="180" as="geometry" />
        </mxCell>
        <mxCell id="MYi6sRTybnQKfaTiDiRy-32" value="&lt;div&gt;+SessionNr(PK)&lt;/div&gt;&lt;div&gt;+UserNr&lt;/div&gt;+BossNr&lt;br&gt;&lt;div&gt;+Schaden&lt;/div&gt;&lt;div&gt;+Gewonnen(bool)&lt;br&gt;&lt;/div&gt;" style="align=left;strokeColor=none;fillColor=none;spacingLeft=4;fontSize=12;verticalAlign=top;resizable=0;rotatable=0;part=1;html=1;" parent="MYi6sRTybnQKfaTiDiRy-31" vertex="1">
          <mxGeometry y="50" width="340" height="130" as="geometry" />
        </mxCell>
        <mxCell id="MYi6sRTybnQKfaTiDiRy-33" value="Bosse" style="swimlane;childLayout=stackLayout;horizontal=1;startSize=50;horizontalStack=0;rounded=1;fontSize=14;fontStyle=0;strokeWidth=2;resizeParent=0;resizeLast=1;shadow=0;dashed=0;align=center;arcSize=4;whiteSpace=wrap;html=1;fillColor=#dae8fc;strokeColor=#6c8ebf;" parent="1" vertex="1">
          <mxGeometry x="35" y="560" width="290" height="180" as="geometry" />
        </mxCell>
        <mxCell id="MYi6sRTybnQKfaTiDiRy-34" value="+BossID&lt;br&gt;+Name&lt;br&gt;&lt;div&gt;+Hp&lt;/div&gt;&lt;div&gt;+(Bild)&lt;/div&gt;&lt;div&gt;+(sonderregel)&lt;br&gt;&lt;/div&gt;" style="align=left;strokeColor=none;fillColor=none;spacingLeft=4;fontSize=12;verticalAlign=top;resizable=0;rotatable=0;part=1;html=1;" parent="MYi6sRTybnQKfaTiDiRy-33" vertex="1">
          <mxGeometry y="50" width="290" height="130" as="geometry" />
        </mxCell>
        <mxCell id="MYi6sRTybnQKfaTiDiRy-35" value="" style="edgeStyle=entityRelationEdgeStyle;fontSize=12;html=1;endArrow=ERoneToMany;rounded=0;exitX=0.997;exitY=0.085;exitDx=0;exitDy=0;exitPerimeter=0;entryX=0;entryY=0.208;entryDx=0;entryDy=0;entryPerimeter=0;" parent="1" source="MYi6sRTybnQKfaTiDiRy-30" target="MYi6sRTybnQKfaTiDiRy-32" edge="1">
          <mxGeometry width="100" height="100" relative="1" as="geometry">
            <mxPoint x="360" y="590" as="sourcePoint" />
            <mxPoint x="430" y="401" as="targetPoint" />
          </mxGeometry>
        </mxCell>
        <mxCell id="MYi6sRTybnQKfaTiDiRy-36" value="" style="edgeStyle=entityRelationEdgeStyle;fontSize=12;html=1;endArrow=ERoneToMany;rounded=0;entryX=-0.015;entryY=0.331;entryDx=0;entryDy=0;entryPerimeter=0;" parent="1" edge="1" target="MYi6sRTybnQKfaTiDiRy-32">
          <mxGeometry width="100" height="100" relative="1" as="geometry">
            <mxPoint x="325" y="615.02" as="sourcePoint" />
            <mxPoint x="436.02" y="380" as="targetPoint" />
            <Array as="points">
              <mxPoint x="575" y="535.02" />
              <mxPoint x="575" y="525.02" />
            </Array>
          </mxGeometry>
        </mxCell>
        <mxCell id="MYi6sRTybnQKfaTiDiRy-38" value="&lt;div align=&quot;left&quot;&gt;Ideensammlung&lt;/div&gt;&lt;div align=&quot;left&quot;&gt;&lt;ul&gt;&lt;li&gt;Zeitlimit für einen Zug&lt;/li&gt;&lt;li&gt;Jeder hat 52 Karten Standard franz. Blatt&lt;/li&gt;&lt;li&gt;Karten in der Sammlung erweitern das Spiel (Modifikatoren? Consumables?)&lt;br&gt;&lt;/li&gt;&lt;li&gt;Als twist: Herz und Karo ziehen ab (Rote Zahlen :))&lt;/li&gt;&lt;li&gt;Gewinnen durch 21 erreichen, stand und über Gegner oder Gegner busted&lt;br&gt;&lt;/li&gt;&lt;li&gt;5 Karten ziehen pro Runde. Nach spielen einer Karte eine nachziehen&lt;br&gt;&lt;/li&gt;&lt;li&gt;Schadensberechnung: Lebenspunkte sind Einsatz und Schaden gleichermaßen (Gewinn wird von Boss Hp abgezogen&lt;br&gt;&lt;/li&gt;&lt;li&gt;Jeder 5Hp&lt;/li&gt;&lt;li&gt;Blackjack-Regeln ohne Split, Versicherung&lt;/li&gt;&lt;li&gt;Spezialkarten könnten haben z.B. &quot;Zählen als Gesicht oder As&quot; &quot;Entferne 1 nicht-As- nicht 10er Karte&quot; &quot;Wenn diese Karte gewinnt +1 Schaden&quot;&lt;/li&gt;&lt;li&gt;Weitere Spez.Karten: &lt;br&gt;&lt;/li&gt;&lt;li&gt;Jeder Bekommt 3 Karten bei Accounterstellung zufällig und eine bei jedem Sieg(oder auch bei &quot;Blackjack&quot; im Spiel&quot;&lt;br&gt;&lt;/li&gt;&lt;/ul&gt;&lt;/div&gt;" style="text;html=1;align=left;verticalAlign=middle;whiteSpace=wrap;rounded=0;" parent="1" vertex="1">
          <mxGeometry y="770" width="800" height="280" as="geometry" />
        </mxCell>
      </root>
    </mxGraphModel>
  </diagram>
</mxfile>
